<?xml version="1.0" encoding="UTF-8"?>
<svg xmlns="http://www.w3.org/2000/svg" xmlns:xlink="http://www.w3.org/1999/xlink" width="2401" height="2401" viewBox="0 0 2401 2401">
<path fill-rule="evenodd" fill="rgb(100%, 100%, 100%)" fill-opacity="1" d="M 0.0859375 0.21875 L 2400.089844 0.21875 L 2400.089844 2400.222656 L 0.0859375 2400.222656 L 0.0859375 0.21875 "/>
<path fill-rule="evenodd" fill="rgb(33.738708%, 47.851562%, 83.984375%)" fill-opacity="1" d="M 242.433594 1090.039062 L 513.832031 1090.039062 C 526.550781 1090.039062 536.953125 1100.449219 536.953125 1113.171875 L 536.953125 1283.699219 C 536.953125 1296.421875 526.550781 1306.828125 513.832031 1306.828125 L 451.15625 1306.828125 C 441.039062 1306.828125 430.921875 1306.828125 424.417969 1306.828125 C 417.914062 1306.828125 415.023438 1306.828125 412.589844 1307.628906 C 408.191406 1309.070312 389.746094 1323.640625 385.28125 1326.800781 C 375.015625 1334.058594 359.800781 1344.640625 350.179688 1351.101562 C 340.554688 1357.570312 336.523438 1359.921875 333.898438 1360.378906 C 331.277344 1360.839844 330.058594 1359.390625 331.199219 1355.25 C 332.339844 1351.101562 335.839844 1344.261719 339.226562 1336.691406 C 342.609375 1329.121094 345.882812 1320.828125 346.945312 1315.730469 C 348.648438 1307.578125 343.164062 1307.488281 336.835938 1307.089844 C 332.78125 1306.828125 327.84375 1306.828125 322.910156 1306.828125 L 242.433594 1306.828125 C 229.714844 1306.828125 219.3125 1296.421875 219.3125 1283.699219 L 219.3125 1113.171875 C 219.3125 1100.449219 229.714844 1090.039062 242.433594 1090.039062 Z M 257.191406 1150.671875 C 251.8125 1150.671875 247.453125 1146.308594 247.453125 1140.929688 C 247.453125 1135.550781 251.8125 1131.191406 257.191406 1131.191406 L 499.078125 1131.191406 C 504.453125 1131.191406 508.8125 1135.550781 508.8125 1140.929688 C 508.8125 1146.308594 504.453125 1150.671875 499.078125 1150.671875 Z M 257.191406 1265.679688 C 251.8125 1265.679688 247.453125 1261.320312 247.453125 1255.941406 C 247.453125 1250.558594 251.8125 1246.199219 257.191406 1246.199219 L 381.328125 1246.199219 C 386.703125 1246.199219 391.0625 1250.558594 391.0625 1255.941406 C 391.0625 1261.320312 386.703125 1265.679688 381.328125 1265.679688 Z M 257.191406 1208.171875 C 251.8125 1208.171875 247.453125 1203.808594 247.453125 1198.429688 C 247.453125 1193.058594 251.8125 1188.699219 257.191406 1188.699219 L 499.078125 1188.699219 C 504.453125 1188.699219 508.8125 1193.058594 508.8125 1198.429688 C 508.8125 1203.808594 504.453125 1208.171875 499.078125 1208.171875 Z M 454.210938 996.351562 C 446.503906 1004.058594 441.714844 1014.71875 441.714844 1026.449219 L 441.714844 1070.570312 L 242.433594 1070.570312 C 230.703125 1070.570312 220.046875 1075.359375 212.335938 1083.070312 C 204.625 1090.78125 199.839844 1101.429688 199.839844 1113.171875 L 199.839844 1283.699219 C 199.839844 1295.441406 204.625 1306.089844 212.335938 1313.800781 C 220.046875 1321.511719 230.703125 1326.300781 242.433594 1326.300781 L 322.589844 1326.300781 L 321.503906 1328.78125 L 318.664062 1334.898438 C 316.0625 1340.5 313.804688 1345.371094 312.488281 1350.148438 C 311.285156 1354.519531 311.058594 1358.449219 311.664062 1361.929688 C 312.355469 1365.941406 313.996094 1369.410156 316.484375 1372.339844 C 319.316406 1375.691406 322.90625 1377.910156 327.148438 1379.078125 C 330.496094 1380 333.839844 1380.128906 337.171875 1379.550781 C 340.824219 1378.910156 344.457031 1377.53125 349.074219 1374.878906 C 351.652344 1373.398438 355.453125 1370.941406 360.980469 1367.230469 C 365.726562 1364.039062 371.5625 1360.039062 377.425781 1355.980469 C 382.144531 1352.710938 389.109375 1347.820312 396.464844 1342.621094 C 399.597656 1340.398438 400.96875 1339.371094 402.601562 1338.128906 C 408.265625 1333.851562 416.644531 1327.519531 418.304688 1326.308594 C 419.195312 1326.300781 421.457031 1326.300781 424.417969 1326.300781 L 513.832031 1326.300781 C 525.566406 1326.300781 536.21875 1321.511719 543.929688 1313.800781 C 551.640625 1306.089844 556.429688 1295.441406 556.429688 1283.699219 L 556.429688 1239.578125 L 573.726562 1239.578125 C 576.683594 1239.578125 578.945312 1239.589844 579.835938 1239.601562 C 581.496094 1240.808594 589.875 1247.140625 595.539062 1251.421875 C 597.175781 1252.660156 598.546875 1253.691406 601.679688 1255.910156 C 609.035156 1261.109375 616 1266 620.714844 1269.261719 C 626.578125 1273.320312 632.414062 1277.320312 637.164062 1280.511719 C 642.6875 1284.21875 646.492188 1286.691406 649.066406 1288.171875 C 653.6875 1290.808594 657.320312 1292.199219 660.972656 1292.839844 C 664.300781 1293.410156 667.648438 1293.28125 670.992188 1292.359375 C 675.234375 1291.199219 678.824219 1288.980469 681.660156 1285.628906 C 684.144531 1282.691406 685.789062 1279.230469 686.480469 1275.21875 C 687.085938 1271.730469 686.859375 1267.808594 685.65625 1263.441406 C 684.339844 1258.648438 682.078125 1253.789062 679.476562 1248.179688 L 676.640625 1242.058594 L 675.554688 1239.578125 L 755.707031 1239.578125 C 767.441406 1239.578125 778.097656 1234.800781 785.808594 1227.089844 C 793.515625 1219.378906 798.304688 1208.71875 798.304688 1196.988281 L 798.304688 1026.449219 C 798.304688 1014.71875 793.515625 1004.058594 785.808594 996.351562 C 778.097656 988.640625 767.441406 983.859375 755.707031 983.859375 L 484.3125 983.859375 C 472.578125 983.859375 461.921875 988.640625 454.210938 996.351562 Z M 461.1875 1070.570312 L 461.1875 1026.449219 C 461.1875 1013.730469 471.59375 1003.328125 484.3125 1003.328125 L 755.707031 1003.328125 C 768.425781 1003.328125 778.832031 1013.730469 778.832031 1026.449219 L 778.832031 1196.988281 C 778.832031 1209.710938 768.425781 1220.109375 755.707031 1220.109375 L 675.234375 1220.109375 C 670.296875 1220.109375 665.359375 1220.109375 661.308594 1220.371094 C 654.976562 1220.78125 649.496094 1220.871094 651.195312 1229.019531 C 652.261719 1234.109375 655.53125 1242.398438 658.917969 1249.96875 C 662.300781 1257.539062 665.800781 1264.390625 666.945312 1268.53125 C 668.085938 1272.679688 666.867188 1274.121094 664.242188 1273.671875 C 661.617188 1273.210938 657.585938 1270.851562 647.964844 1264.390625 C 638.34375 1257.921875 623.128906 1247.351562 612.859375 1240.078125 C 608.394531 1236.929688 589.953125 1222.359375 585.554688 1220.910156 C 583.117188 1220.109375 580.226562 1220.109375 573.726562 1220.109375 C 569.269531 1220.109375 563.117188 1220.109375 556.429688 1220.109375 L 556.429688 1113.171875 C 556.429688 1101.429688 551.640625 1090.78125 543.929688 1083.070312 C 536.21875 1075.359375 525.566406 1070.570312 513.832031 1070.570312 Z M 579.542969 1239.398438 C 579.414062 1239.351562 579.363281 1239.339844 579.542969 1239.398438 Z M 418.597656 1326.109375 C 418.78125 1326.050781 418.726562 1326.070312 418.597656 1326.109375 "/>
<path fill-rule="evenodd" fill="rgb(33.738708%, 47.851562%, 83.984375%)" fill-opacity="1" d="M 1383.699219 973.578125 L 1112.300781 973.578125 C 1100.570312 973.578125 1089.910156 978.359375 1082.199219 986.078125 C 1074.488281 993.789062 1069.710938 1004.441406 1069.710938 1016.171875 L 1069.710938 1080.851562 L 1016.46875 1080.851562 C 1004.738281 1080.851562 994.085938 1085.628906 986.371094 1093.339844 C 978.664062 1101.050781 973.878906 1111.710938 973.878906 1123.441406 L 973.878906 1293.980469 C 973.878906 1305.710938 978.664062 1316.371094 986.371094 1324.078125 C 994.085938 1331.789062 1004.738281 1336.578125 1016.46875 1336.578125 L 1096.628906 1336.578125 L 1095.539062 1339.050781 L 1092.699219 1345.171875 C 1090.101562 1350.78125 1087.839844 1355.648438 1086.53125 1360.429688 C 1085.320312 1364.800781 1085.101562 1368.71875 1085.699219 1372.210938 C 1086.390625 1376.21875 1088.039062 1379.679688 1090.519531 1382.621094 C 1093.351562 1385.96875 1096.941406 1388.191406 1101.191406 1389.351562 C 1104.53125 1390.269531 1107.878906 1390.398438 1111.210938 1389.828125 C 1114.859375 1389.191406 1118.488281 1387.800781 1123.109375 1385.160156 C 1125.691406 1383.679688 1129.488281 1381.210938 1135.019531 1377.5 C 1139.769531 1374.308594 1145.601562 1370.308594 1151.460938 1366.25 C 1156.179688 1362.988281 1163.148438 1358.101562 1170.5 1352.898438 C 1173.628906 1350.679688 1175 1349.648438 1176.640625 1348.410156 C 1182.308594 1344.128906 1190.679688 1337.800781 1192.339844 1336.589844 C 1193.230469 1336.578125 1195.5 1336.578125 1198.449219 1336.578125 L 1287.871094 1336.578125 C 1299.601562 1336.578125 1310.261719 1331.789062 1317.96875 1324.078125 C 1325.679688 1316.371094 1330.46875 1305.710938 1330.46875 1293.980469 L 1330.46875 1229.308594 L 1383.699219 1229.308594 C 1395.429688 1229.308594 1406.089844 1224.519531 1413.800781 1216.808594 C 1421.511719 1209.101562 1426.300781 1198.449219 1426.300781 1186.710938 L 1426.300781 1016.171875 C 1426.300781 1004.441406 1421.511719 993.789062 1413.800781 986.078125 C 1406.089844 978.371094 1395.429688 973.578125 1383.699219 973.578125 Z M 1034.859375 1158.300781 C 1029.488281 1158.300781 1025.128906 1153.941406 1025.128906 1148.558594 C 1025.128906 1143.191406 1029.488281 1138.828125 1034.859375 1138.828125 L 1276.75 1138.828125 C 1282.128906 1138.828125 1286.488281 1143.191406 1286.488281 1148.558594 C 1286.488281 1153.941406 1282.128906 1158.300781 1276.75 1158.300781 Z M 1034.859375 1273.308594 C 1029.488281 1273.308594 1025.128906 1268.949219 1025.128906 1263.570312 C 1025.128906 1258.199219 1029.488281 1253.839844 1034.859375 1253.839844 L 1159 1253.839844 C 1164.378906 1253.839844 1168.738281 1258.199219 1168.738281 1263.570312 C 1168.738281 1268.949219 1164.378906 1273.308594 1159 1273.308594 Z M 1034.859375 1215.808594 C 1029.488281 1215.808594 1025.128906 1211.449219 1025.128906 1206.070312 C 1025.128906 1200.691406 1029.488281 1196.328125 1034.859375 1196.328125 L 1276.75 1196.328125 C 1282.128906 1196.328125 1286.488281 1200.691406 1286.488281 1206.070312 C 1286.488281 1211.449219 1282.128906 1215.808594 1276.75 1215.808594 Z M 1089.179688 1080.851562 L 1089.179688 1016.171875 C 1089.179688 1003.460938 1099.578125 993.050781 1112.300781 993.050781 L 1383.699219 993.050781 C 1396.421875 993.050781 1406.820312 1003.460938 1406.820312 1016.171875 L 1406.820312 1186.710938 C 1406.820312 1199.429688 1396.421875 1209.839844 1383.699219 1209.839844 L 1330.46875 1209.839844 L 1330.46875 1123.441406 C 1330.46875 1111.710938 1325.679688 1101.050781 1317.96875 1093.339844 C 1310.261719 1085.628906 1299.601562 1080.851562 1287.871094 1080.851562 Z M 1016.46875 1100.320312 L 1287.871094 1100.320312 C 1300.589844 1100.320312 1310.988281 1110.71875 1310.988281 1123.441406 L 1310.988281 1293.980469 C 1310.988281 1306.699219 1300.589844 1317.101562 1287.871094 1317.101562 L 1225.191406 1317.101562 C 1215.078125 1317.101562 1204.960938 1317.101562 1198.449219 1317.101562 C 1191.949219 1317.101562 1189.058594 1317.101562 1186.628906 1317.898438 C 1182.230469 1319.351562 1163.78125 1333.921875 1159.320312 1337.070312 C 1149.050781 1344.339844 1133.839844 1354.910156 1124.21875 1361.378906 C 1114.589844 1367.839844 1110.558594 1370.199219 1107.941406 1370.660156 C 1105.308594 1371.109375 1104.101562 1369.671875 1105.238281 1365.519531 C 1106.378906 1361.378906 1109.878906 1354.53125 1113.261719 1346.960938 C 1116.648438 1339.390625 1119.921875 1331.101562 1120.980469 1326.011719 C 1122.691406 1317.859375 1117.199219 1317.769531 1110.871094 1317.359375 C 1106.820312 1317.101562 1101.878906 1317.101562 1096.949219 1317.101562 L 1016.46875 1317.101562 C 1003.75 1317.101562 993.347656 1306.699219 993.347656 1293.980469 L 993.347656 1123.441406 C 993.347656 1110.71875 1003.75 1100.320312 1016.46875 1100.320312 Z M 1192.640625 1336.390625 C 1192.820312 1336.328125 1192.761719 1336.339844 1192.640625 1336.390625 "/>
<path fill-rule="evenodd" fill="rgb(33.738708%, 47.851562%, 83.984375%)" fill-opacity="1" d="M 1973.058594 1220.109375 L 1973.058594 1239.578125 L 1975.75 1239.578125 C 1978.710938 1239.578125 1980.980469 1239.589844 1981.871094 1239.601562 C 1983.53125 1240.808594 1991.910156 1247.140625 1997.570312 1251.421875 C 1999.199219 1252.660156 2000.578125 1253.691406 2003.710938 1255.910156 C 2011.058594 1261.109375 2018.03125 1266 2022.75 1269.261719 C 2028.609375 1273.320312 2034.441406 1277.320312 2039.191406 1280.511719 C 2044.71875 1284.21875 2048.519531 1286.691406 2051.101562 1288.171875 C 2055.71875 1290.808594 2059.351562 1292.199219 2063 1292.839844 C 2066.328125 1293.410156 2069.679688 1293.28125 2073.019531 1292.359375 C 2077.269531 1291.199219 2080.859375 1288.980469 2083.691406 1285.628906 C 2086.179688 1282.691406 2087.820312 1279.230469 2088.511719 1275.21875 C 2089.109375 1271.730469 2088.890625 1267.808594 2087.679688 1263.441406 C 2086.371094 1258.648438 2084.109375 1253.789062 2081.511719 1248.179688 L 2078.671875 1242.058594 L 2077.578125 1239.578125 L 2157.738281 1239.578125 C 2169.46875 1239.578125 2180.128906 1234.800781 2187.839844 1227.089844 C 2188.660156 1226.269531 2189.449219 1225.410156 2190.199219 1224.519531 C 2196.511719 1217.089844 2200.328125 1207.46875 2200.328125 1196.988281 L 2200.328125 1026.449219 C 2200.328125 1014.71875 2195.550781 1004.058594 2187.839844 996.351562 C 2180.128906 988.640625 2169.46875 983.859375 2157.738281 983.859375 L 1886.339844 983.859375 C 1874.609375 983.859375 1863.949219 988.640625 1856.238281 996.351562 C 1848.53125 1004.058594 1843.75 1014.71875 1843.75 1026.449219 L 1843.75 1055.96875 L 1915.859375 1055.96875 C 1931.058594 1055.96875 1945.539062 1062 1956.289062 1072.738281 C 1967.03125 1083.480469 1973.058594 1097.96875 1973.058594 1113.171875 Z M 1795.390625 1255.941406 C 1795.390625 1250.558594 1791.03125 1246.199219 1785.660156 1246.199219 L 1661.519531 1246.199219 C 1656.140625 1246.199219 1651.78125 1250.558594 1651.78125 1255.941406 C 1651.78125 1261.320312 1656.140625 1265.679688 1661.519531 1265.679688 L 1785.660156 1265.679688 C 1791.03125 1265.679688 1795.390625 1261.320312 1795.390625 1255.941406 Z M 1661.519531 1150.671875 L 1903.398438 1150.671875 C 1908.78125 1150.671875 1913.140625 1146.308594 1913.140625 1140.929688 C 1913.140625 1135.550781 1908.78125 1131.191406 1903.398438 1131.191406 L 1661.519531 1131.191406 C 1656.140625 1131.191406 1651.78125 1135.550781 1651.78125 1140.929688 C 1651.78125 1146.308594 1656.140625 1150.671875 1661.519531 1150.671875 Z M 1661.519531 1208.171875 L 1903.398438 1208.171875 C 1908.78125 1208.171875 1913.140625 1203.808594 1913.140625 1198.429688 C 1913.140625 1193.058594 1908.78125 1188.699219 1903.398438 1188.699219 L 1661.519531 1188.699219 C 1656.140625 1188.699219 1651.78125 1193.058594 1651.78125 1198.429688 C 1651.78125 1203.808594 1656.140625 1208.171875 1661.519531 1208.171875 Z M 1644.460938 1090.039062 L 1915.859375 1090.039062 C 1928.578125 1090.039062 1938.988281 1100.449219 1938.988281 1113.171875 L 1938.988281 1283.699219 C 1938.988281 1296.421875 1928.578125 1306.828125 1915.859375 1306.828125 L 1853.179688 1306.828125 C 1843.070312 1306.828125 1832.949219 1306.828125 1826.449219 1306.828125 C 1819.941406 1306.828125 1817.050781 1306.828125 1814.621094 1307.628906 C 1810.21875 1309.070312 1791.78125 1323.640625 1787.308594 1326.800781 C 1777.039062 1334.058594 1761.828125 1344.640625 1752.210938 1351.101562 C 1742.589844 1357.570312 1738.550781 1359.921875 1735.929688 1360.378906 C 1733.308594 1360.839844 1732.089844 1359.390625 1733.230469 1355.25 C 1734.371094 1351.101562 1737.871094 1344.261719 1741.25 1336.691406 C 1744.640625 1329.121094 1747.910156 1320.828125 1748.980469 1315.730469 C 1750.679688 1307.578125 1745.199219 1307.488281 1738.859375 1307.089844 C 1734.808594 1306.828125 1729.878906 1306.828125 1724.941406 1306.828125 L 1644.460938 1306.828125 C 1631.75 1306.828125 1621.339844 1296.421875 1621.339844 1283.699219 L 1621.339844 1113.171875 C 1621.339844 1100.449219 1631.75 1090.039062 1644.460938 1090.039062 Z M 1958.460938 1220.109375 L 1958.460938 1113.171875 C 1958.460938 1101.429688 1953.671875 1090.78125 1945.960938 1083.070312 C 1938.25 1075.359375 1927.601562 1070.570312 1915.859375 1070.570312 L 1644.460938 1070.570312 C 1632.730469 1070.570312 1622.078125 1075.359375 1614.371094 1083.070312 C 1606.660156 1090.78125 1601.871094 1101.429688 1601.871094 1113.171875 L 1601.871094 1283.699219 C 1601.871094 1295.441406 1606.660156 1306.089844 1614.371094 1313.800781 C 1622.078125 1321.511719 1632.730469 1326.300781 1644.460938 1326.300781 L 1724.621094 1326.300781 L 1723.53125 1328.78125 L 1720.699219 1334.898438 C 1718.089844 1340.5 1715.828125 1345.371094 1714.519531 1350.148438 C 1713.308594 1354.519531 1713.089844 1358.449219 1713.691406 1361.929688 C 1714.390625 1365.941406 1716.03125 1369.410156 1718.511719 1372.339844 C 1721.351562 1375.691406 1724.941406 1377.910156 1729.179688 1379.078125 C 1732.519531 1380 1735.871094 1380.128906 1739.199219 1379.550781 C 1742.851562 1378.910156 1746.488281 1377.53125 1751.109375 1374.878906 C 1753.679688 1373.398438 1757.488281 1370.941406 1763.011719 1367.230469 C 1767.761719 1364.039062 1773.589844 1360.039062 1779.460938 1355.980469 C 1784.171875 1352.710938 1791.140625 1347.820312 1798.488281 1342.621094 C 1801.628906 1340.398438 1803 1339.371094 1804.628906 1338.128906 C 1810.300781 1333.851562 1818.679688 1327.519531 1820.339844 1326.308594 C 1821.230469 1326.300781 1823.488281 1326.300781 1826.449219 1326.300781 L 1915.859375 1326.300781 C 1927.601562 1326.300781 1938.25 1321.511719 1945.960938 1313.800781 C 1953.671875 1306.089844 1958.460938 1295.441406 1958.460938 1283.699219 Z M 1820.628906 1326.109375 C 1820.808594 1326.050781 1820.761719 1326.070312 1820.628906 1326.109375 Z M 1981.570312 1239.398438 C 1981.449219 1239.351562 1981.390625 1239.339844 1981.570312 1239.398438 "/>
<path fill-rule="evenodd" fill="rgb(33.738708%, 47.851562%, 83.984375%)" fill-opacity="1" d="M 653.488281 1917.019531 L 653.488281 1936.492188 L 673.253906 1936.492188 C 681.765625 1936.492188 689.714844 1933.972656 696.378906 1929.644531 C 698.898438 1928.007812 701.234375 1926.109375 703.351562 1923.996094 C 711.0625 1916.285156 715.847656 1905.628906 715.847656 1893.898438 L 715.847656 1723.359375 C 715.847656 1711.625 711.0625 1700.96875 703.351562 1693.257812 C 695.640625 1685.550781 684.988281 1680.761719 673.253906 1680.761719 L 401.855469 1680.761719 C 390.121094 1680.761719 379.46875 1685.550781 371.757812 1693.257812 C 364.046875 1700.96875 359.257812 1711.625 359.257812 1723.359375 L 359.257812 1761.089844 L 596.289062 1761.089844 C 611.488281 1761.089844 625.96875 1767.121094 636.714844 1777.863281 C 647.453125 1788.601562 653.488281 1803.089844 653.488281 1818.285156 Z M 458.882812 1972.867188 C 464.257812 1972.867188 468.617188 1968.507812 468.617188 1963.132812 C 468.617188 1957.753906 464.257812 1953.394531 458.882812 1953.394531 L 334.742188 1953.394531 C 329.367188 1953.394531 325.007812 1957.753906 325.007812 1963.132812 C 325.007812 1968.507812 329.367188 1972.867188 334.742188 1972.867188 Z M 334.742188 1857.855469 L 576.628906 1857.855469 C 582.007812 1857.855469 586.367188 1853.496094 586.367188 1848.121094 C 586.367188 1842.742188 582.007812 1838.386719 576.628906 1838.386719 L 334.742188 1838.386719 C 329.367188 1838.386719 325.007812 1842.742188 325.007812 1848.121094 C 325.007812 1853.496094 329.367188 1857.855469 334.742188 1857.855469 Z M 334.742188 1915.363281 L 576.628906 1915.363281 C 582.007812 1915.363281 586.367188 1911.003906 586.367188 1905.628906 C 586.367188 1900.25 582.007812 1895.890625 576.628906 1895.890625 L 334.742188 1895.890625 C 329.367188 1895.890625 325.007812 1900.25 325.007812 1905.628906 C 325.007812 1911.003906 329.367188 1915.363281 334.742188 1915.363281 Z M 398.203125 1795.164062 L 596.289062 1795.164062 C 609.003906 1795.164062 619.410156 1805.570312 619.410156 1818.285156 L 619.410156 1988.824219 C 619.410156 2001.546875 609.003906 2011.949219 596.289062 2011.949219 L 533.609375 2011.949219 C 523.492188 2011.949219 513.378906 2011.949219 506.871094 2011.949219 C 500.371094 2011.949219 497.480469 2011.949219 495.046875 2012.75 C 490.644531 2014.191406 472.203125 2028.761719 467.738281 2031.921875 C 457.46875 2039.183594 442.257812 2049.757812 432.632812 2056.222656 C 423.011719 2062.6875 418.980469 2065.046875 416.355469 2065.503906 C 413.730469 2065.960938 412.515625 2064.515625 413.65625 2060.371094 C 414.796875 2056.222656 418.296875 2049.378906 421.679688 2041.808594 C 425.066406 2034.238281 428.335938 2025.949219 429.402344 2020.851562 C 431.101562 2012.707031 425.621094 2012.613281 419.289062 2012.210938 C 415.238281 2011.949219 410.300781 2011.949219 405.363281 2011.949219 L 324.890625 2011.949219 C 312.171875 2011.949219 301.765625 2001.546875 301.765625 1988.824219 L 301.765625 1818.285156 C 301.765625 1805.570312 312.171875 1795.164062 324.890625 1795.164062 Z M 638.882812 1917.019531 L 638.882812 1818.285156 C 638.882812 1806.554688 634.097656 1795.898438 626.386719 1788.1875 C 618.675781 1780.480469 608.023438 1775.691406 596.289062 1775.691406 L 324.890625 1775.691406 C 313.15625 1775.691406 302.503906 1780.480469 294.789062 1788.1875 C 287.078125 1795.898438 282.296875 1806.554688 282.296875 1818.285156 L 282.296875 1988.824219 C 282.296875 2000.558594 287.078125 2011.214844 294.789062 2018.925781 C 302.503906 2026.636719 313.15625 2031.421875 324.890625 2031.421875 L 405.042969 2031.421875 L 403.957031 2033.898438 L 401.121094 2040.019531 C 398.519531 2045.625 396.257812 2050.492188 394.941406 2055.273438 C 393.742188 2059.644531 393.511719 2063.570312 394.117188 2067.058594 C 394.8125 2071.066406 396.453125 2074.53125 398.9375 2077.460938 C 401.773438 2080.8125 405.363281 2083.035156 409.605469 2084.199219 C 412.949219 2085.121094 416.296875 2085.25 419.625 2084.671875 C 423.28125 2084.035156 426.914062 2082.648438 431.53125 2080.003906 C 434.109375 2078.527344 437.910156 2076.058594 443.433594 2072.347656 C 448.183594 2069.15625 454.019531 2065.160156 459.882812 2061.101562 C 464.597656 2057.835938 471.5625 2052.945312 478.921875 2047.742188 C 482.050781 2045.527344 483.421875 2044.492188 485.058594 2043.257812 C 490.722656 2038.976562 499.101562 2032.644531 500.761719 2031.4375 C 501.652344 2031.421875 503.914062 2031.421875 506.871094 2031.421875 L 596.289062 2031.421875 C 608.023438 2031.421875 618.675781 2026.636719 626.386719 2018.925781 C 634.097656 2011.214844 638.882812 2000.558594 638.882812 1988.824219 Z M 501.054688 2031.234375 C 501.234375 2031.171875 501.183594 2031.191406 501.054688 2031.234375 "/>
<path fill-rule="evenodd" fill="rgb(33.738708%, 47.851562%, 83.984375%)" fill-opacity="1" d="M 1378.378906 539.328125 L 1378.378906 368.789062 C 1378.378906 357.058594 1373.589844 346.398438 1365.878906 338.691406 C 1358.171875 330.980469 1347.519531 326.199219 1335.789062 326.199219 L 1064.390625 326.199219 C 1052.648438 326.199219 1042 330.980469 1034.289062 338.691406 C 1026.578125 346.398438 1021.789062 357.058594 1021.789062 368.789062 L 1021.789062 539.328125 C 1021.789062 551.070312 1026.578125 561.71875 1034.289062 569.429688 C 1042 577.140625 1052.648438 581.929688 1064.390625 581.929688 L 1144.539062 581.929688 L 1143.449219 584.398438 L 1140.621094 590.53125 C 1138.019531 596.128906 1135.761719 601 1134.441406 605.78125 C 1133.238281 610.148438 1133.011719 614.078125 1133.621094 617.558594 C 1134.308594 621.570312 1135.949219 625.039062 1138.441406 627.96875 C 1141.269531 631.320312 1144.859375 633.539062 1149.101562 634.710938 C 1152.449219 635.628906 1155.789062 635.761719 1159.121094 635.179688 C 1162.78125 634.539062 1166.410156 633.160156 1171.03125 630.511719 C 1173.609375 629.03125 1177.410156 626.570312 1182.929688 622.851562 C 1187.679688 619.660156 1193.519531 615.671875 1199.378906 611.609375 C 1204.101562 608.339844 1211.058594 603.449219 1218.421875 598.25 C 1221.550781 596.03125 1222.921875 595 1224.558594 593.761719 C 1230.21875 589.480469 1238.601562 583.148438 1240.261719 581.941406 C 1241.148438 581.929688 1243.410156 581.929688 1246.371094 581.929688 L 1335.789062 581.929688 C 1347.519531 581.929688 1358.171875 577.140625 1365.878906 569.429688 C 1373.589844 561.71875 1378.378906 551.070312 1378.378906 539.328125 Z M 1082.789062 401.808594 C 1077.410156 401.808594 1073.058594 397.449219 1073.058594 392.070312 C 1073.058594 386.699219 1077.410156 382.339844 1082.789062 382.339844 L 1324.679688 382.339844 C 1330.050781 382.339844 1334.410156 386.699219 1334.410156 392.070312 C 1334.410156 397.449219 1330.050781 401.808594 1324.679688 401.808594 Z M 1082.789062 516.820312 C 1077.410156 516.820312 1073.058594 512.460938 1073.058594 507.078125 C 1073.058594 501.710938 1077.410156 497.351562 1082.789062 497.351562 L 1206.929688 497.351562 C 1212.308594 497.351562 1216.660156 501.710938 1216.660156 507.078125 C 1216.660156 512.460938 1212.308594 516.820312 1206.929688 516.820312 Z M 1082.789062 459.320312 C 1077.410156 459.320312 1073.058594 454.960938 1073.058594 449.578125 C 1073.058594 444.199219 1077.410156 439.839844 1082.789062 439.839844 L 1324.679688 439.839844 C 1330.050781 439.839844 1334.410156 444.199219 1334.410156 449.578125 C 1334.410156 454.960938 1330.050781 459.320312 1324.679688 459.320312 Z M 1358.910156 368.789062 L 1358.910156 539.328125 C 1358.910156 552.050781 1348.5 562.460938 1335.789062 562.460938 L 1273.109375 562.460938 C 1262.988281 562.460938 1252.871094 562.460938 1246.371094 562.460938 C 1239.871094 562.460938 1236.980469 562.460938 1234.539062 563.25 C 1230.140625 564.699219 1211.699219 579.269531 1207.238281 582.429688 C 1196.96875 589.691406 1181.75 600.261719 1172.128906 606.730469 C 1162.511719 613.191406 1158.480469 615.550781 1155.851562 616.011719 C 1153.230469 616.46875 1152.011719 615.019531 1153.148438 610.871094 C 1154.289062 606.730469 1157.789062 599.878906 1161.179688 592.308594 C 1164.558594 584.75 1167.828125 576.460938 1168.898438 571.359375 C 1170.601562 563.210938 1165.121094 563.121094 1158.789062 562.71875 C 1154.738281 562.460938 1149.800781 562.460938 1144.859375 562.460938 L 1064.390625 562.460938 C 1051.671875 562.460938 1041.261719 552.050781 1041.261719 539.328125 L 1041.261719 368.789062 C 1041.261719 356.070312 1051.671875 345.671875 1064.390625 345.671875 L 1335.789062 345.671875 C 1348.5 345.671875 1358.910156 356.070312 1358.910156 368.789062 Z M 1240.550781 581.738281 C 1240.730469 581.679688 1240.679688 581.699219 1240.550781 581.738281 "/>
<path fill-rule="evenodd" fill="rgb(33.738708%, 47.851562%, 83.984375%)" fill-opacity="1" d="M 677.367188 539.328125 L 677.367188 368.789062 C 677.367188 357.058594 672.578125 346.398438 664.867188 338.691406 C 657.15625 330.980469 646.503906 326.199219 634.769531 326.199219 L 363.371094 326.199219 C 351.640625 326.199219 340.984375 330.980469 333.273438 338.691406 C 325.5625 346.398438 320.777344 357.058594 320.777344 368.789062 L 320.777344 539.328125 C 320.777344 551.070312 325.5625 561.71875 333.273438 569.429688 C 340.984375 577.140625 351.640625 581.929688 363.371094 581.929688 L 443.527344 581.929688 L 442.441406 584.398438 L 439.605469 590.53125 C 437.003906 596.128906 434.742188 601 433.425781 605.78125 C 432.222656 610.148438 431.996094 614.078125 432.601562 617.558594 C 433.292969 621.570312 434.9375 625.039062 437.421875 627.96875 C 440.253906 631.320312 443.84375 633.539062 448.089844 634.710938 C 451.433594 635.628906 454.777344 635.761719 458.109375 635.179688 C 461.761719 634.539062 465.394531 633.160156 470.015625 630.511719 C 472.589844 629.03125 476.394531 626.570312 481.917969 622.851562 C 486.667969 619.660156 492.5 615.671875 498.363281 611.609375 C 503.082031 608.339844 510.046875 603.449219 517.402344 598.25 C 520.535156 596.03125 521.90625 595 523.539062 593.761719 C 529.207031 589.480469 537.585938 583.148438 539.246094 581.941406 C 540.132812 581.929688 542.394531 581.929688 545.355469 581.929688 L 634.769531 581.929688 C 646.503906 581.929688 657.15625 577.140625 664.867188 569.429688 C 672.578125 561.71875 677.367188 551.070312 677.367188 539.328125 Z M 465.601562 436.71875 C 475.179688 436.71875 482.945312 444.480469 482.945312 454.058594 C 482.945312 463.640625 475.179688 471.398438 465.601562 471.398438 C 456.023438 471.398438 448.257812 463.640625 448.257812 454.058594 C 448.257812 444.480469 456.023438 436.71875 465.601562 436.71875 Z M 398.664062 436.71875 C 408.242188 436.71875 416.007812 444.480469 416.007812 454.058594 C 416.007812 463.640625 408.242188 471.398438 398.664062 471.398438 C 389.085938 471.398438 381.324219 463.640625 381.324219 454.058594 C 381.324219 444.480469 389.085938 436.71875 398.664062 436.71875 Z M 599.476562 436.71875 C 609.054688 436.71875 616.820312 444.480469 616.820312 454.058594 C 616.820312 463.640625 609.054688 471.398438 599.476562 471.398438 C 589.898438 471.398438 582.132812 463.640625 582.132812 454.058594 C 582.132812 444.480469 589.898438 436.71875 599.476562 436.71875 Z M 532.539062 436.71875 C 542.117188 436.71875 549.882812 444.480469 549.882812 454.058594 C 549.882812 463.640625 542.117188 471.398438 532.539062 471.398438 C 522.960938 471.398438 515.195312 463.640625 515.195312 454.058594 C 515.195312 444.480469 522.960938 436.71875 532.539062 436.71875 Z M 657.894531 368.789062 L 657.894531 539.328125 C 657.894531 552.050781 647.488281 562.460938 634.769531 562.460938 L 572.09375 562.460938 C 561.976562 562.460938 551.859375 562.460938 545.355469 562.460938 C 538.851562 562.460938 535.960938 562.460938 533.527344 563.25 C 529.128906 564.699219 510.683594 579.269531 506.21875 582.429688 C 495.953125 589.691406 480.738281 600.261719 471.117188 606.730469 C 461.492188 613.191406 457.464844 615.550781 454.839844 616.011719 C 452.214844 616.46875 450.996094 615.019531 452.136719 610.871094 C 453.277344 606.730469 456.777344 599.878906 460.164062 592.308594 C 463.546875 584.75 466.820312 576.460938 467.882812 571.359375 C 469.585938 563.210938 464.101562 563.121094 457.773438 562.71875 C 453.71875 562.460938 448.78125 562.460938 443.847656 562.460938 L 363.371094 562.460938 C 350.65625 562.460938 340.25 552.050781 340.25 539.328125 L 340.25 368.789062 C 340.25 356.070312 350.65625 345.671875 363.371094 345.671875 L 634.769531 345.671875 C 647.488281 345.671875 657.894531 356.070312 657.894531 368.789062 Z M 539.535156 581.738281 C 539.71875 581.679688 539.664062 581.699219 539.535156 581.738281 "/>
<path fill-rule="evenodd" fill="rgb(33.738708%, 47.851562%, 83.984375%)" fill-opacity="1" d="M 1907.941406 1918.851562 L 1783.808594 1918.851562 C 1778.429688 1918.851562 1774.070312 1914.492188 1774.070312 1909.113281 C 1774.070312 1903.738281 1778.429688 1899.378906 1783.808594 1899.378906 L 1907.941406 1899.378906 C 1913.320312 1899.378906 1917.679688 1903.738281 1917.679688 1909.113281 C 1917.679688 1914.492188 1913.320312 1918.851562 1907.941406 1918.851562 Z M 2025.691406 1861.34375 L 1783.808594 1861.34375 C 1778.429688 1861.34375 1774.070312 1856.984375 1774.070312 1851.609375 C 1774.070312 1846.230469 1778.429688 1841.871094 1783.808594 1841.871094 L 2025.691406 1841.871094 C 2031.070312 1841.871094 2035.429688 1846.230469 2035.429688 1851.609375 C 2035.429688 1856.984375 2031.070312 1861.34375 2025.691406 1861.34375 Z M 2025.691406 1803.839844 L 1783.808594 1803.839844 C 1778.429688 1803.839844 1774.070312 1799.480469 1774.070312 1794.105469 C 1774.070312 1788.726562 1778.429688 1784.367188 1783.808594 1784.367188 L 2025.691406 1784.367188 C 2031.070312 1784.367188 2035.429688 1788.726562 2035.429688 1794.105469 C 2035.429688 1799.480469 2031.070312 1803.839844 2025.691406 1803.839844 Z M 2079.398438 1941.359375 L 2079.398438 1770.824219 C 2079.398438 1759.089844 2074.609375 1748.433594 2066.898438 1740.722656 C 2059.191406 1733.015625 2048.53125 1728.226562 2036.800781 1728.226562 L 1765.398438 1728.226562 C 1753.671875 1728.226562 1743.011719 1733.015625 1735.300781 1740.722656 C 1727.589844 1748.433594 1722.808594 1759.089844 1722.808594 1770.824219 L 1722.808594 1941.359375 C 1722.808594 1953.09375 1727.589844 1963.75 1735.300781 1971.460938 C 1743.011719 1979.171875 1753.671875 1983.957031 1765.398438 1983.957031 L 1845.558594 1983.957031 L 1844.46875 1986.433594 L 1841.628906 1992.554688 C 1839.03125 1998.160156 1836.769531 2003.027344 1835.449219 2007.808594 C 1834.25 2012.179688 1834.03125 2016.105469 1834.628906 2019.59375 C 1835.320312 2023.601562 1836.96875 2027.066406 1839.449219 2029.996094 C 1842.28125 2033.351562 1845.878906 2035.570312 1850.121094 2036.734375 C 1853.460938 2037.65625 1856.808594 2037.785156 1860.140625 2037.207031 C 1863.789062 2036.570312 1867.429688 2035.183594 1872.039062 2032.539062 C 1874.621094 2031.0625 1878.421875 2028.59375 1883.949219 2024.882812 C 1888.699219 2021.691406 1894.53125 2017.695312 1900.390625 2013.636719 C 1905.109375 2010.371094 1912.078125 2005.480469 1919.429688 2000.277344 C 1922.558594 1998.0625 1923.929688 1997.027344 1925.570312 1995.789062 C 1931.238281 1991.511719 1939.609375 1985.183594 1941.269531 1983.972656 C 1942.160156 1983.957031 1944.429688 1983.957031 1947.390625 1983.957031 L 2036.800781 1983.957031 C 2048.53125 1983.957031 2059.191406 1979.171875 2066.898438 1971.460938 C 2074.609375 1963.75 2079.398438 1953.09375 2079.398438 1941.359375 Z M 1941.570312 1983.769531 C 1941.75 1983.710938 1941.691406 1983.726562 1941.570312 1983.769531 "/>
<path fill-rule="evenodd" fill="rgb(33.738708%, 47.851562%, 83.984375%)" fill-opacity="1" d="M 1378.378906 1941.359375 L 1378.378906 1770.824219 C 1378.378906 1759.089844 1373.589844 1748.433594 1365.878906 1740.722656 C 1358.171875 1733.015625 1347.519531 1728.226562 1335.789062 1728.226562 L 1064.390625 1728.226562 C 1052.648438 1728.226562 1042 1733.015625 1034.289062 1740.722656 C 1026.578125 1748.433594 1021.789062 1759.089844 1021.789062 1770.824219 L 1021.789062 1941.359375 C 1021.789062 1953.09375 1026.578125 1963.75 1034.289062 1971.460938 C 1042 1979.171875 1052.648438 1983.957031 1064.390625 1983.957031 L 1144.539062 1983.957031 L 1143.449219 1986.433594 L 1140.621094 1992.554688 C 1138.019531 1998.160156 1135.761719 2003.027344 1134.441406 2007.808594 C 1133.238281 2012.179688 1133.011719 2016.105469 1133.621094 2019.59375 C 1134.308594 2023.601562 1135.949219 2027.066406 1138.441406 2029.996094 C 1141.269531 2033.351562 1144.859375 2035.570312 1149.101562 2036.734375 C 1152.449219 2037.65625 1155.789062 2037.785156 1159.121094 2037.207031 C 1162.78125 2036.570312 1166.410156 2035.183594 1171.03125 2032.539062 C 1173.609375 2031.0625 1177.410156 2028.59375 1182.929688 2024.882812 C 1187.679688 2021.691406 1193.519531 2017.695312 1199.378906 2013.636719 C 1204.101562 2010.371094 1211.058594 2005.480469 1218.421875 2000.277344 C 1221.550781 1998.0625 1222.921875 1997.027344 1224.558594 1995.789062 C 1230.21875 1991.511719 1238.601562 1985.183594 1240.261719 1983.972656 C 1241.148438 1983.957031 1243.410156 1983.957031 1246.371094 1983.957031 L 1335.789062 1983.957031 C 1347.519531 1983.957031 1358.171875 1979.171875 1365.878906 1971.460938 C 1373.589844 1963.75 1378.378906 1953.09375 1378.378906 1941.359375 Z M 1240.550781 1983.769531 C 1240.730469 1983.710938 1240.679688 1983.726562 1240.550781 1983.769531 Z M 1178.699219 1844.015625 C 1175.609375 1840.925781 1171.339844 1839.011719 1166.621094 1839.011719 C 1161.898438 1839.011719 1157.628906 1840.925781 1154.539062 1844.015625 C 1151.449219 1847.105469 1149.539062 1851.375 1149.539062 1856.09375 C 1149.539062 1860.808594 1151.449219 1865.078125 1154.539062 1868.167969 C 1157.628906 1871.261719 1161.898438 1873.171875 1166.621094 1873.171875 C 1171.339844 1873.171875 1175.609375 1871.261719 1178.691406 1868.171875 C 1181.789062 1865.078125 1183.699219 1860.808594 1183.699219 1856.09375 C 1183.699219 1851.375 1181.789062 1847.105469 1178.699219 1844.015625 Z M 1111.761719 1844.015625 C 1108.671875 1840.925781 1104.398438 1839.011719 1099.679688 1839.011719 C 1094.960938 1839.011719 1090.691406 1840.925781 1087.601562 1844.015625 C 1084.511719 1847.105469 1082.601562 1851.375 1082.601562 1856.09375 C 1082.601562 1860.808594 1084.511719 1865.078125 1087.601562 1868.167969 C 1090.691406 1871.261719 1094.960938 1873.171875 1099.679688 1873.171875 C 1104.398438 1873.171875 1108.671875 1871.261719 1111.761719 1868.171875 C 1114.851562 1865.078125 1116.761719 1860.808594 1116.761719 1856.09375 C 1116.761719 1851.375 1114.851562 1847.105469 1111.761719 1844.015625 Z M 1312.570312 1844.015625 C 1309.480469 1840.925781 1305.210938 1839.011719 1300.488281 1839.011719 C 1295.769531 1839.011719 1291.5 1840.925781 1288.410156 1844.015625 C 1285.320312 1847.105469 1283.410156 1851.375 1283.410156 1856.09375 C 1283.410156 1860.808594 1285.320312 1865.078125 1288.410156 1868.167969 C 1291.5 1871.261719 1295.769531 1873.171875 1300.488281 1873.171875 C 1305.210938 1873.171875 1309.480469 1871.261719 1312.570312 1868.171875 C 1315.660156 1865.078125 1317.570312 1860.808594 1317.570312 1856.09375 C 1317.570312 1851.375 1315.660156 1847.105469 1312.570312 1844.015625 Z M 1245.628906 1844.015625 C 1242.539062 1840.925781 1238.269531 1839.011719 1233.550781 1839.011719 C 1228.839844 1839.011719 1224.570312 1840.925781 1221.480469 1844.015625 C 1218.390625 1847.105469 1216.480469 1851.375 1216.480469 1856.09375 C 1216.480469 1860.808594 1218.390625 1865.078125 1221.480469 1868.167969 C 1224.570312 1871.261719 1228.839844 1873.171875 1233.550781 1873.171875 C 1238.269531 1873.171875 1242.539062 1871.261719 1245.628906 1868.171875 C 1248.71875 1865.078125 1250.628906 1860.808594 1250.628906 1856.09375 C 1250.628906 1851.375 1248.71875 1847.105469 1245.628906 1844.015625 "/>
<path fill-rule="evenodd" fill="rgb(33.738708%, 47.851562%, 83.984375%)" fill-opacity="1" d="M 1795.660156 556.671875 C 1750.378906 534.671875 1720.910156 498.871094 1720.910156 458.449219 C 1720.910156 391.558594 1801.589844 337.328125 1901.101562 337.328125 C 2000.609375 337.328125 2081.289062 391.558594 2081.289062 458.449219 C 2081.289062 525.339844 2000.609375 579.570312 1901.101562 579.570312 C 1899.21875 579.570312 1897.269531 579.550781 1895.398438 579.511719 C 1889.238281 584.011719 1882.730469 589.058594 1880.320312 590.769531 C 1870.050781 598.039062 1854.839844 608.609375 1845.210938 615.070312 C 1835.589844 621.539062 1831.558594 623.898438 1828.941406 624.359375 C 1826.308594 624.808594 1825.089844 623.371094 1826.230469 619.21875 C 1827.378906 615.070312 1830.878906 608.230469 1834.261719 600.660156 C 1837.640625 593.089844 1840.921875 584.800781 1841.980469 579.699219 C 1842.511719 577.179688 1842.28125 575.410156 1841.53125 574.160156 C 1840.941406 573.171875 1839.390625 572.359375 1837.5 571.691406 C 1822.699219 566.449219 1810.898438 564.078125 1795.660156 556.671875 Z M 1983.46875 462.621094 C 1983.46875 472.199219 1991.230469 479.960938 2000.808594 479.960938 C 2010.390625 479.960938 2018.148438 472.199219 2018.148438 462.621094 C 2018.148438 453.039062 2010.390625 445.28125 2000.808594 445.28125 C 1991.230469 445.28125 1983.46875 453.039062 1983.46875 462.621094 Z M 1916.53125 462.621094 C 1916.53125 472.199219 1924.300781 479.960938 1933.878906 479.960938 C 1943.449219 479.960938 1951.21875 472.199219 1951.21875 462.621094 C 1951.21875 453.039062 1943.449219 445.28125 1933.878906 445.28125 C 1924.300781 445.28125 1916.53125 453.039062 1916.53125 462.621094 Z M 1849.589844 462.621094 C 1849.589844 472.199219 1857.359375 479.960938 1866.941406 479.960938 C 1876.519531 479.960938 1884.28125 472.199219 1884.28125 462.621094 C 1884.28125 453.039062 1876.519531 445.28125 1866.941406 445.28125 C 1857.359375 445.28125 1849.589844 453.039062 1849.589844 462.621094 Z M 1782.660156 462.621094 C 1782.660156 472.199219 1790.421875 479.960938 1800 479.960938 C 1809.578125 479.960938 1817.339844 472.199219 1817.339844 462.621094 C 1817.339844 453.039062 1809.578125 445.28125 1800 445.28125 C 1790.421875 445.28125 1782.660156 453.039062 1782.660156 462.621094 Z M 1899.101562 604.050781 L 1902.519531 601.46875 C 1956.089844 601.210938 2004.910156 586.269531 2040.660156 562.230469 C 2079.300781 536.269531 2103.191406 499.621094 2103.191406 458.449219 C 2103.191406 417.28125 2079.300781 380.628906 2040.660156 354.660156 C 2004.589844 330.421875 1955.21875 315.421875 1901.101562 315.421875 C 1846.980469 315.421875 1797.609375 330.421875 1761.539062 354.660156 C 1722.898438 380.628906 1699.011719 417.28125 1699.011719 458.449219 C 1699.011719 483.238281 1707.738281 506.460938 1723.210938 526.789062 C 1738.328125 546.660156 1760 563.640625 1786.160156 576.351562 C 1797.488281 581.859375 1806.628906 584.78125 1816.070312 587.71875 C 1815.488281 589.109375 1814.898438 590.46875 1814.320312 591.761719 L 1811.5 597.851562 C 1808.859375 603.539062 1806.558594 608.480469 1805.179688 613.488281 C 1803.878906 618.21875 1803.640625 622.5 1804.300781 626.320312 C 1805.070312 630.769531 1806.898438 634.621094 1809.660156 637.878906 C 1812.828125 641.621094 1816.820312 644.089844 1821.550781 645.390625 C 1825.25 646.410156 1828.949219 646.558594 1832.621094 645.921875 C 1836.558594 645.230469 1840.441406 643.761719 1845.320312 640.96875 C 1847.910156 639.480469 1851.761719 636.980469 1857.359375 633.21875 C 1862.121094 630.019531 1867.96875 626.011719 1873.839844 621.949219 C 1878.320312 618.851562 1885.28125 613.960938 1892.859375 608.601562 L 1892.898438 608.660156 C 1894.550781 607.488281 1896.601562 605.941406 1899.101562 604.050781 "/>
</svg>
