<svg width="1920" height="1080" viewBox="0 0 1920 1080" fill="none" xmlns="http://www.w3.org/2000/svg">
<path d="M1913.55 251H7" stroke="#CCCCCC"/>
<path d="M1913.55 353H7" stroke="#CCCCCC"/>
<path d="M1913.55 13H7" stroke="#CCCCCC"/>
<path d="M1913.55 47H7" stroke="#CCCCCC"/>
<path d="M1913.55 387H7" stroke="#CCCCCC"/>
<path d="M1913.55 455H7" stroke="#CCCCCC"/>
<path d="M1913.55 81H7" stroke="#CCCCCC"/>
<path d="M1913.55 115H7" stroke="#CCCCCC"/>
<path d="M1913.55 523H7" stroke="#CCCCCC"/>
<path d="M1913.55 591H7" stroke="#CCCCCC"/>
<path d="M1913.55 149H7" stroke="#CCCCCC"/>
<path d="M1913.55 183H7" stroke="#CCCCCC"/>
<path d="M1913.55 659H7" stroke="#CCCCCC"/>
<path d="M1913.55 727H7" stroke="#CCCCCC"/>
<path d="M1913.55 217H7" stroke="#CCCCCC"/>
<path d="M1913.55 285H7" stroke="#CCCCCC"/>
<path d="M1913.55 795H7" stroke="#CCCCCC"/>
<path d="M1913.55 863H7" stroke="#CCCCCC"/>
<path d="M1913.55 319H7" stroke="#CCCCCC"/>
<path d="M1913.55 421H7" stroke="#CCCCCC"/>
<path d="M1913.55 897H7" stroke="#CCCCCC"/>
<path d="M1913.55 931H7" stroke="#CCCCCC"/>
<path d="M1913.55 489H7" stroke="#CCCCCC"/>
<path d="M1913.55 557H7" stroke="#CCCCCC"/>
<path d="M1913.55 965H7" stroke="#CCCCCC"/>
<path d="M1913.55 999H7" stroke="#CCCCCC"/>
<path d="M1913.55 625H7" stroke="#CCCCCC"/>
<path d="M1913.55 693H7" stroke="#CCCCCC"/>
<path d="M1913.55 1033H7" stroke="#CCCCCC"/>
<path d="M1913.55 1067H7" stroke="#CCCCCC"/>
<path d="M1913.55 761H7" stroke="#CCCCCC"/>
<path d="M1913.55 829H7" stroke="#CCCCCC"/>
<path d="M245 -2.07424e-05L245 1080" stroke="url(#paint0_linear_557_2)"/>
<path d="M347 -2.07424e-05L347 1080" stroke="url(#paint1_linear_557_2)"/>
<path d="M7.00001 -2.07424e-05L7 1080" stroke="url(#paint2_linear_557_2)"/>
<path d="M41 -2.07424e-05L41 1080" stroke="url(#paint3_linear_557_2)"/>
<path d="M381 -2.07424e-05L381 1080" stroke="url(#paint4_linear_557_2)"/>
<path d="M449 -2.07424e-05L449 1080" stroke="url(#paint5_linear_557_2)"/>
<path d="M75 -2.07424e-05L75 1080" stroke="url(#paint6_linear_557_2)"/>
<path d="M109 -2.07424e-05L109 1080" stroke="url(#paint7_linear_557_2)"/>
<path d="M517 -2.07424e-05L517 1080" stroke="url(#paint8_linear_557_2)"/>
<path d="M585 -2.07424e-05L585 1080" stroke="url(#paint9_linear_557_2)"/>
<path d="M143 -2.07424e-05L143 1080" stroke="url(#paint10_linear_557_2)"/>
<path d="M177 -2.07424e-05L177 1080" stroke="url(#paint11_linear_557_2)"/>
<path d="M653 -2.07424e-05L653 1080" stroke="url(#paint12_linear_557_2)"/>
<path d="M721 -2.07424e-05L721 1080" stroke="url(#paint13_linear_557_2)"/>
<path d="M211 -2.07424e-05L211 1080" stroke="url(#paint14_linear_557_2)"/>
<path d="M279 -2.07424e-05L279 1080" stroke="url(#paint15_linear_557_2)"/>
<path d="M789 -2.07424e-05L789 1080" stroke="url(#paint16_linear_557_2)"/>
<path d="M857 -2.07424e-05L857 1080" stroke="url(#paint17_linear_557_2)"/>
<path d="M313 -2.07424e-05L313 1080" stroke="url(#paint18_linear_557_2)"/>
<path d="M415 -2.07424e-05L415 1080" stroke="url(#paint19_linear_557_2)"/>
<path d="M891 -2.07424e-05L891 1080" stroke="url(#paint20_linear_557_2)"/>
<path d="M925 -2.07424e-05L925 1080" stroke="url(#paint21_linear_557_2)"/>
<path d="M483 -2.07424e-05L483 1080" stroke="url(#paint22_linear_557_2)"/>
<path d="M551 -2.07424e-05L551 1080" stroke="url(#paint23_linear_557_2)"/>
<path d="M959 -2.07424e-05L959 1080" stroke="url(#paint24_linear_557_2)"/>
<path d="M993 -2.07424e-05L993 1080" stroke="url(#paint25_linear_557_2)"/>
<path d="M619 -2.07424e-05L619 1080" stroke="url(#paint26_linear_557_2)"/>
<path d="M687 -2.07424e-05L687 1080" stroke="url(#paint27_linear_557_2)"/>
<path d="M1027 -2.07424e-05L1027 1080" stroke="url(#paint28_linear_557_2)"/>
<path d="M1061 -2.07424e-05L1061 1080" stroke="url(#paint29_linear_557_2)"/>
<path d="M755 -2.07424e-05L755 1080" stroke="url(#paint30_linear_557_2)"/>
<path d="M823 -2.07424e-05L823 1080" stroke="url(#paint31_linear_557_2)"/>
<path d="M1333 -2.07424e-05L1333 1080" stroke="url(#paint32_linear_557_2)"/>
<path d="M1435 -2.07424e-05L1435 1080" stroke="url(#paint33_linear_557_2)"/>
<path d="M1095 -2.07424e-05L1095 1080" stroke="url(#paint34_linear_557_2)"/>
<path d="M1129 -2.07424e-05L1129 1080" stroke="url(#paint35_linear_557_2)"/>
<path d="M1469 -2.07424e-05L1469 1080" stroke="url(#paint36_linear_557_2)"/>
<path d="M1537 -2.07424e-05L1537 1080" stroke="url(#paint37_linear_557_2)"/>
<path d="M1163 -2.07424e-05L1163 1080" stroke="url(#paint38_linear_557_2)"/>
<path d="M1197 -2.07424e-05L1197 1080" stroke="url(#paint39_linear_557_2)"/>
<path d="M1605 -2.07424e-05L1605 1080" stroke="url(#paint40_linear_557_2)"/>
<path d="M1673 -2.07424e-05L1673 1080" stroke="url(#paint41_linear_557_2)"/>
<path d="M1231 -2.07424e-05L1231 1080" stroke="url(#paint42_linear_557_2)"/>
<path d="M1265 -2.07424e-05L1265 1080" stroke="url(#paint43_linear_557_2)"/>
<path d="M1741 -2.07424e-05L1741 1080" stroke="url(#paint44_linear_557_2)"/>
<path d="M1809 -2.07424e-05L1809 1080" stroke="url(#paint45_linear_557_2)"/>
<path d="M1299 -2.07424e-05L1299 1080" stroke="url(#paint46_linear_557_2)"/>
<path d="M1367 -2.07424e-05L1367 1080" stroke="url(#paint47_linear_557_2)"/>
<path d="M1877 -2.07424e-05L1877 1080" stroke="url(#paint48_linear_557_2)"/>
<path d="M1401 -2.07424e-05L1401 1080" stroke="url(#paint49_linear_557_2)"/>
<path d="M1503 -2.07424e-05L1503 1080" stroke="url(#paint50_linear_557_2)"/>
<path d="M1571 -2.07424e-05L1571 1080" stroke="url(#paint51_linear_557_2)"/>
<path d="M1639 -2.07424e-05L1639 1080" stroke="url(#paint52_linear_557_2)"/>
<path d="M1707 -2.07424e-05L1707 1080" stroke="url(#paint53_linear_557_2)"/>
<path d="M1775 -2.07424e-05L1775 1080" stroke="url(#paint54_linear_557_2)"/>
<path d="M1843 -2.07424e-05L1843 1080" stroke="url(#paint55_linear_557_2)"/>
<path d="M1911 -2.07424e-05L1911 1080" stroke="url(#paint56_linear_557_2)"/>
<defs>
<linearGradient id="paint0_linear_557_2" x1="245.5" y1="5.96256e-09" x2="245.5" y2="1080" gradientUnits="userSpaceOnUse">
<stop offset="0.735577" stop-color="#666666"/>
<stop offset="1" stop-color="#CCCCCC" stop-opacity="0.22"/>
</linearGradient>
<linearGradient id="paint1_linear_557_2" x1="347.5" y1="5.96256e-09" x2="347.5" y2="1080" gradientUnits="userSpaceOnUse">
<stop offset="0.735577" stop-color="#666666"/>
<stop offset="1" stop-color="#CCCCCC" stop-opacity="0.22"/>
</linearGradient>
<linearGradient id="paint2_linear_557_2" x1="7.50001" y1="5.96256e-09" x2="7.5" y2="1080" gradientUnits="userSpaceOnUse">
<stop offset="0.735577" stop-color="#666666"/>
<stop offset="1" stop-color="#CCCCCC" stop-opacity="0.22"/>
</linearGradient>
<linearGradient id="paint3_linear_557_2" x1="41.5" y1="5.96256e-09" x2="41.5" y2="1080" gradientUnits="userSpaceOnUse">
<stop offset="0.735577" stop-color="#666666"/>
<stop offset="1" stop-color="#CCCCCC" stop-opacity="0.22"/>
</linearGradient>
<linearGradient id="paint4_linear_557_2" x1="381.5" y1="5.96256e-09" x2="381.5" y2="1080" gradientUnits="userSpaceOnUse">
<stop offset="0.735577" stop-color="#666666"/>
<stop offset="1" stop-color="#CCCCCC" stop-opacity="0.22"/>
</linearGradient>
<linearGradient id="paint5_linear_557_2" x1="449.5" y1="5.96256e-09" x2="449.5" y2="1080" gradientUnits="userSpaceOnUse">
<stop offset="0.735577" stop-color="#666666"/>
<stop offset="1" stop-color="#CCCCCC" stop-opacity="0.22"/>
</linearGradient>
<linearGradient id="paint6_linear_557_2" x1="75.5" y1="5.96256e-09" x2="75.5" y2="1080" gradientUnits="userSpaceOnUse">
<stop offset="0.735577" stop-color="#666666"/>
<stop offset="1" stop-color="#CCCCCC" stop-opacity="0.22"/>
</linearGradient>
<linearGradient id="paint7_linear_557_2" x1="109.5" y1="5.96256e-09" x2="109.5" y2="1080" gradientUnits="userSpaceOnUse">
<stop offset="0.735577" stop-color="#666666"/>
<stop offset="1" stop-color="#CCCCCC" stop-opacity="0.22"/>
</linearGradient>
<linearGradient id="paint8_linear_557_2" x1="517.5" y1="5.96256e-09" x2="517.5" y2="1080" gradientUnits="userSpaceOnUse">
<stop offset="0.735577" stop-color="#666666"/>
<stop offset="1" stop-color="#CCCCCC" stop-opacity="0.22"/>
</linearGradient>
<linearGradient id="paint9_linear_557_2" x1="585.5" y1="5.96256e-09" x2="585.5" y2="1080" gradientUnits="userSpaceOnUse">
<stop offset="0.735577" stop-color="#666666"/>
<stop offset="1" stop-color="#CCCCCC" stop-opacity="0.22"/>
</linearGradient>
<linearGradient id="paint10_linear_557_2" x1="143.5" y1="5.96256e-09" x2="143.5" y2="1080" gradientUnits="userSpaceOnUse">
<stop offset="0.735577" stop-color="#666666"/>
<stop offset="1" stop-color="#CCCCCC" stop-opacity="0.22"/>
</linearGradient>
<linearGradient id="paint11_linear_557_2" x1="177.5" y1="5.96256e-09" x2="177.5" y2="1080" gradientUnits="userSpaceOnUse">
<stop offset="0.735577" stop-color="#666666"/>
<stop offset="1" stop-color="#CCCCCC" stop-opacity="0.22"/>
</linearGradient>
<linearGradient id="paint12_linear_557_2" x1="653.5" y1="5.96256e-09" x2="653.5" y2="1080" gradientUnits="userSpaceOnUse">
<stop offset="0.735577" stop-color="#666666"/>
<stop offset="1" stop-color="#CCCCCC" stop-opacity="0.22"/>
</linearGradient>
<linearGradient id="paint13_linear_557_2" x1="721.5" y1="5.96256e-09" x2="721.5" y2="1080" gradientUnits="userSpaceOnUse">
<stop offset="0.735577" stop-color="#666666"/>
<stop offset="1" stop-color="#CCCCCC" stop-opacity="0.22"/>
</linearGradient>
<linearGradient id="paint14_linear_557_2" x1="211.5" y1="5.96256e-09" x2="211.5" y2="1080" gradientUnits="userSpaceOnUse">
<stop offset="0.735577" stop-color="#666666"/>
<stop offset="1" stop-color="#CCCCCC" stop-opacity="0.22"/>
</linearGradient>
<linearGradient id="paint15_linear_557_2" x1="279.5" y1="5.96256e-09" x2="279.5" y2="1080" gradientUnits="userSpaceOnUse">
<stop offset="0.735577" stop-color="#666666"/>
<stop offset="1" stop-color="#CCCCCC" stop-opacity="0.22"/>
</linearGradient>
<linearGradient id="paint16_linear_557_2" x1="789.5" y1="5.96256e-09" x2="789.5" y2="1080" gradientUnits="userSpaceOnUse">
<stop offset="0.735577" stop-color="#666666"/>
<stop offset="1" stop-color="#CCCCCC" stop-opacity="0.22"/>
</linearGradient>
<linearGradient id="paint17_linear_557_2" x1="857.5" y1="5.96256e-09" x2="857.5" y2="1080" gradientUnits="userSpaceOnUse">
<stop offset="0.735577" stop-color="#666666"/>
<stop offset="1" stop-color="#CCCCCC" stop-opacity="0.22"/>
</linearGradient>
<linearGradient id="paint18_linear_557_2" x1="313.5" y1="5.96256e-09" x2="313.5" y2="1080" gradientUnits="userSpaceOnUse">
<stop offset="0.735577" stop-color="#666666"/>
<stop offset="1" stop-color="#CCCCCC" stop-opacity="0.22"/>
</linearGradient>
<linearGradient id="paint19_linear_557_2" x1="415.5" y1="5.96256e-09" x2="415.5" y2="1080" gradientUnits="userSpaceOnUse">
<stop offset="0.735577" stop-color="#666666"/>
<stop offset="1" stop-color="#CCCCCC" stop-opacity="0.22"/>
</linearGradient>
<linearGradient id="paint20_linear_557_2" x1="891.5" y1="5.96256e-09" x2="891.5" y2="1080" gradientUnits="userSpaceOnUse">
<stop offset="0.735577" stop-color="#666666"/>
<stop offset="1" stop-color="#CCCCCC" stop-opacity="0.22"/>
</linearGradient>
<linearGradient id="paint21_linear_557_2" x1="925.5" y1="5.96256e-09" x2="925.5" y2="1080" gradientUnits="userSpaceOnUse">
<stop offset="0.735577" stop-color="#666666"/>
<stop offset="1" stop-color="#CCCCCC" stop-opacity="0.22"/>
</linearGradient>
<linearGradient id="paint22_linear_557_2" x1="483.5" y1="5.96256e-09" x2="483.5" y2="1080" gradientUnits="userSpaceOnUse">
<stop offset="0.735577" stop-color="#666666"/>
<stop offset="1" stop-color="#CCCCCC" stop-opacity="0.22"/>
</linearGradient>
<linearGradient id="paint23_linear_557_2" x1="551.5" y1="5.96256e-09" x2="551.5" y2="1080" gradientUnits="userSpaceOnUse">
<stop offset="0.735577" stop-color="#666666"/>
<stop offset="1" stop-color="#CCCCCC" stop-opacity="0.22"/>
</linearGradient>
<linearGradient id="paint24_linear_557_2" x1="959.5" y1="5.96256e-09" x2="959.5" y2="1080" gradientUnits="userSpaceOnUse">
<stop offset="0.735577" stop-color="#666666"/>
<stop offset="1" stop-color="#CCCCCC" stop-opacity="0.22"/>
</linearGradient>
<linearGradient id="paint25_linear_557_2" x1="993.5" y1="5.96256e-09" x2="993.5" y2="1080" gradientUnits="userSpaceOnUse">
<stop offset="0.735577" stop-color="#666666"/>
<stop offset="1" stop-color="#CCCCCC" stop-opacity="0.22"/>
</linearGradient>
<linearGradient id="paint26_linear_557_2" x1="619.5" y1="5.96256e-09" x2="619.5" y2="1080" gradientUnits="userSpaceOnUse">
<stop offset="0.735577" stop-color="#666666"/>
<stop offset="1" stop-color="#CCCCCC" stop-opacity="0.22"/>
</linearGradient>
<linearGradient id="paint27_linear_557_2" x1="687.5" y1="5.96256e-09" x2="687.5" y2="1080" gradientUnits="userSpaceOnUse">
<stop offset="0.735577" stop-color="#666666"/>
<stop offset="1" stop-color="#CCCCCC" stop-opacity="0.22"/>
</linearGradient>
<linearGradient id="paint28_linear_557_2" x1="1027.5" y1="5.96256e-09" x2="1027.5" y2="1080" gradientUnits="userSpaceOnUse">
<stop offset="0.735577" stop-color="#666666"/>
<stop offset="1" stop-color="#CCCCCC" stop-opacity="0.22"/>
</linearGradient>
<linearGradient id="paint29_linear_557_2" x1="1061.5" y1="5.96256e-09" x2="1061.5" y2="1080" gradientUnits="userSpaceOnUse">
<stop offset="0.735577" stop-color="#666666"/>
<stop offset="1" stop-color="#CCCCCC" stop-opacity="0.22"/>
</linearGradient>
<linearGradient id="paint30_linear_557_2" x1="755.5" y1="5.96256e-09" x2="755.5" y2="1080" gradientUnits="userSpaceOnUse">
<stop offset="0.735577" stop-color="#666666"/>
<stop offset="1" stop-color="#CCCCCC" stop-opacity="0.22"/>
</linearGradient>
<linearGradient id="paint31_linear_557_2" x1="823.5" y1="5.96256e-09" x2="823.5" y2="1080" gradientUnits="userSpaceOnUse">
<stop offset="0.735577" stop-color="#666666"/>
<stop offset="1" stop-color="#CCCCCC" stop-opacity="0.22"/>
</linearGradient>
<linearGradient id="paint32_linear_557_2" x1="1333.5" y1="5.96256e-09" x2="1333.5" y2="1080" gradientUnits="userSpaceOnUse">
<stop offset="0.735577" stop-color="#666666"/>
<stop offset="1" stop-color="#CCCCCC" stop-opacity="0.22"/>
</linearGradient>
<linearGradient id="paint33_linear_557_2" x1="1435.5" y1="5.96256e-09" x2="1435.5" y2="1080" gradientUnits="userSpaceOnUse">
<stop offset="0.735577" stop-color="#666666"/>
<stop offset="1" stop-color="#CCCCCC" stop-opacity="0.22"/>
</linearGradient>
<linearGradient id="paint34_linear_557_2" x1="1095.5" y1="5.96256e-09" x2="1095.5" y2="1080" gradientUnits="userSpaceOnUse">
<stop offset="0.735577" stop-color="#666666"/>
<stop offset="1" stop-color="#CCCCCC" stop-opacity="0.22"/>
</linearGradient>
<linearGradient id="paint35_linear_557_2" x1="1129.5" y1="5.96256e-09" x2="1129.5" y2="1080" gradientUnits="userSpaceOnUse">
<stop offset="0.735577" stop-color="#666666"/>
<stop offset="1" stop-color="#CCCCCC" stop-opacity="0.22"/>
</linearGradient>
<linearGradient id="paint36_linear_557_2" x1="1469.5" y1="5.96256e-09" x2="1469.5" y2="1080" gradientUnits="userSpaceOnUse">
<stop offset="0.735577" stop-color="#666666"/>
<stop offset="1" stop-color="#CCCCCC" stop-opacity="0.22"/>
</linearGradient>
<linearGradient id="paint37_linear_557_2" x1="1537.5" y1="5.96256e-09" x2="1537.5" y2="1080" gradientUnits="userSpaceOnUse">
<stop offset="0.735577" stop-color="#666666"/>
<stop offset="1" stop-color="#CCCCCC" stop-opacity="0.22"/>
</linearGradient>
<linearGradient id="paint38_linear_557_2" x1="1163.5" y1="5.96256e-09" x2="1163.5" y2="1080" gradientUnits="userSpaceOnUse">
<stop offset="0.735577" stop-color="#666666"/>
<stop offset="1" stop-color="#CCCCCC" stop-opacity="0.22"/>
</linearGradient>
<linearGradient id="paint39_linear_557_2" x1="1197.5" y1="5.96256e-09" x2="1197.5" y2="1080" gradientUnits="userSpaceOnUse">
<stop offset="0.735577" stop-color="#666666"/>
<stop offset="1" stop-color="#CCCCCC" stop-opacity="0.22"/>
</linearGradient>
<linearGradient id="paint40_linear_557_2" x1="1605.5" y1="5.96256e-09" x2="1605.5" y2="1080" gradientUnits="userSpaceOnUse">
<stop offset="0.735577" stop-color="#666666"/>
<stop offset="1" stop-color="#CCCCCC" stop-opacity="0.22"/>
</linearGradient>
<linearGradient id="paint41_linear_557_2" x1="1673.5" y1="5.96256e-09" x2="1673.5" y2="1080" gradientUnits="userSpaceOnUse">
<stop offset="0.735577" stop-color="#666666"/>
<stop offset="1" stop-color="#CCCCCC" stop-opacity="0.22"/>
</linearGradient>
<linearGradient id="paint42_linear_557_2" x1="1231.5" y1="5.96256e-09" x2="1231.5" y2="1080" gradientUnits="userSpaceOnUse">
<stop offset="0.735577" stop-color="#666666"/>
<stop offset="1" stop-color="#CCCCCC" stop-opacity="0.22"/>
</linearGradient>
<linearGradient id="paint43_linear_557_2" x1="1265.5" y1="5.96256e-09" x2="1265.5" y2="1080" gradientUnits="userSpaceOnUse">
<stop offset="0.735577" stop-color="#666666"/>
<stop offset="1" stop-color="#CCCCCC" stop-opacity="0.22"/>
</linearGradient>
<linearGradient id="paint44_linear_557_2" x1="1741.5" y1="5.96256e-09" x2="1741.5" y2="1080" gradientUnits="userSpaceOnUse">
<stop offset="0.735577" stop-color="#666666"/>
<stop offset="1" stop-color="#CCCCCC" stop-opacity="0.22"/>
</linearGradient>
<linearGradient id="paint45_linear_557_2" x1="1809.5" y1="5.96256e-09" x2="1809.5" y2="1080" gradientUnits="userSpaceOnUse">
<stop offset="0.735577" stop-color="#666666"/>
<stop offset="1" stop-color="#CCCCCC" stop-opacity="0.22"/>
</linearGradient>
<linearGradient id="paint46_linear_557_2" x1="1299.5" y1="5.96256e-09" x2="1299.5" y2="1080" gradientUnits="userSpaceOnUse">
<stop offset="0.735577" stop-color="#666666"/>
<stop offset="1" stop-color="#CCCCCC" stop-opacity="0.22"/>
</linearGradient>
<linearGradient id="paint47_linear_557_2" x1="1367.5" y1="5.96256e-09" x2="1367.5" y2="1080" gradientUnits="userSpaceOnUse">
<stop offset="0.735577" stop-color="#666666"/>
<stop offset="1" stop-color="#CCCCCC" stop-opacity="0.22"/>
</linearGradient>
<linearGradient id="paint48_linear_557_2" x1="1877.5" y1="5.96256e-09" x2="1877.5" y2="1080" gradientUnits="userSpaceOnUse">
<stop offset="0.735577" stop-color="#666666"/>
<stop offset="1" stop-color="#CCCCCC" stop-opacity="0.22"/>
</linearGradient>
<linearGradient id="paint49_linear_557_2" x1="1401.5" y1="5.96256e-09" x2="1401.5" y2="1080" gradientUnits="userSpaceOnUse">
<stop offset="0.735577" stop-color="#666666"/>
<stop offset="1" stop-color="#CCCCCC" stop-opacity="0.22"/>
</linearGradient>
<linearGradient id="paint50_linear_557_2" x1="1503.5" y1="5.96256e-09" x2="1503.5" y2="1080" gradientUnits="userSpaceOnUse">
<stop offset="0.735577" stop-color="#666666"/>
<stop offset="1" stop-color="#CCCCCC" stop-opacity="0.22"/>
</linearGradient>
<linearGradient id="paint51_linear_557_2" x1="1571.5" y1="5.96256e-09" x2="1571.5" y2="1080" gradientUnits="userSpaceOnUse">
<stop offset="0.735577" stop-color="#666666"/>
<stop offset="1" stop-color="#CCCCCC" stop-opacity="0.22"/>
</linearGradient>
<linearGradient id="paint52_linear_557_2" x1="1639.5" y1="5.96256e-09" x2="1639.5" y2="1080" gradientUnits="userSpaceOnUse">
<stop offset="0.735577" stop-color="#666666"/>
<stop offset="1" stop-color="#CCCCCC" stop-opacity="0.22"/>
</linearGradient>
<linearGradient id="paint53_linear_557_2" x1="1707.5" y1="5.96256e-09" x2="1707.5" y2="1080" gradientUnits="userSpaceOnUse">
<stop offset="0.735577" stop-color="#666666"/>
<stop offset="1" stop-color="#CCCCCC" stop-opacity="0.22"/>
</linearGradient>
<linearGradient id="paint54_linear_557_2" x1="1775.5" y1="5.96256e-09" x2="1775.5" y2="1080" gradientUnits="userSpaceOnUse">
<stop offset="0.735577" stop-color="#666666"/>
<stop offset="1" stop-color="#CCCCCC" stop-opacity="0.22"/>
</linearGradient>
<linearGradient id="paint55_linear_557_2" x1="1843.5" y1="5.96256e-09" x2="1843.5" y2="1080" gradientUnits="userSpaceOnUse">
<stop offset="0.735577" stop-color="#666666"/>
<stop offset="1" stop-color="#CCCCCC" stop-opacity="0.22"/>
</linearGradient>
<linearGradient id="paint56_linear_557_2" x1="1911.5" y1="5.96256e-09" x2="1911.5" y2="1080" gradientUnits="userSpaceOnUse">
<stop offset="0.735577" stop-color="#666666"/>
<stop offset="1" stop-color="#CCCCCC" stop-opacity="0.22"/>
</linearGradient>
</defs>
</svg>
