<svg width="1370" height="445" viewBox="0 0 1370 445" fill="none" xmlns="http://www.w3.org/2000/svg">
<path d="M201 156C201 185.787 163.086 193.518 124.285 193.63C81.4248 193.754 63.3523 219.02 91.953 250.942C138.574 302.978 201 365.88 201 364V82M110 364H256C293.555 364 324 333.555 324 296V150C324 112.445 293.555 82 256 82H110C72.4446 82 42 112.445 42 150V296C42 333.555 72.4446 364 110 364Z" stroke="black" stroke-width="19" stroke-linecap="round"/>
<path d="M364 246V102H419.6C421 102 422.567 102.067 424.3 102.2C426.1 102.267 427.9 102.467 429.7 102.8C437.233 103.933 443.6 106.567 448.8 110.7C454.067 114.767 458.033 119.9 460.7 126.1C463.433 132.3 464.8 139.167 464.8 146.7C464.8 157.567 461.933 167 456.2 175C450.467 183 442.267 188.033 431.6 190.1L426.5 191.3H378.7V246H364ZM451.2 246L422.8 187.4L436.9 182L468.1 246H451.2ZM378.7 177.3H419.2C420.4 177.3 421.8 177.233 423.4 177.1C425 176.967 426.567 176.733 428.1 176.4C433.033 175.333 437.067 173.3 440.2 170.3C443.4 167.3 445.767 163.733 447.3 159.6C448.9 155.467 449.7 151.167 449.7 146.7C449.7 142.233 448.9 137.933 447.3 133.8C445.767 129.6 443.4 126 440.2 123C437.067 120 433.033 117.967 428.1 116.9C426.567 116.567 425 116.367 423.4 116.3C421.8 116.167 420.4 116.1 419.2 116.1H378.7V177.3ZM535.272 249C524.539 249 515.372 246.567 507.772 241.7C500.172 236.833 494.339 230.1 490.272 221.5C486.205 212.9 484.172 203.033 484.172 191.9C484.172 180.567 486.239 170.633 490.372 162.1C494.505 153.567 500.372 146.933 507.972 142.2C515.639 137.4 524.739 135 535.272 135C546.072 135 555.272 137.433 562.872 142.3C570.539 147.1 576.372 153.8 580.372 162.4C584.439 170.933 586.472 180.767 586.472 191.9C586.472 203.233 584.439 213.2 580.372 221.8C576.305 230.333 570.439 237 562.772 241.8C555.105 246.6 545.939 249 535.272 249ZM535.272 234.9C547.272 234.9 556.205 230.933 562.072 223C567.939 215 570.872 204.633 570.872 191.9C570.872 178.833 567.905 168.433 561.972 160.7C556.105 152.967 547.205 149.1 535.272 149.1C527.205 149.1 520.539 150.933 515.272 154.6C510.072 158.2 506.172 163.233 503.572 169.7C501.039 176.1 499.772 183.5 499.772 191.9C499.772 204.9 502.772 215.333 508.772 223.2C514.772 231 523.605 234.9 535.272 234.9ZM686.531 246V190.9C686.531 184.9 685.965 179.4 684.831 174.4C683.698 169.333 681.865 164.933 679.331 161.2C676.865 157.4 673.631 154.467 669.631 152.4C665.698 150.333 660.898 149.3 655.231 149.3C650.031 149.3 645.431 150.2 641.431 152C637.498 153.8 634.165 156.4 631.431 159.8C628.765 163.133 626.731 167.2 625.331 172C623.931 176.8 623.231 182.267 623.231 188.4L612.831 186.1C612.831 175.033 614.765 165.733 618.631 158.2C622.498 150.667 627.831 144.967 634.631 141.1C641.431 137.233 649.231 135.3 658.031 135.3C664.498 135.3 670.131 136.3 674.931 138.3C679.798 140.3 683.898 143 687.231 146.4C690.631 149.8 693.365 153.7 695.431 158.1C697.498 162.433 698.998 167.067 699.931 172C700.865 176.867 701.331 181.733 701.331 186.6V246H686.531ZM608.431 246V138H621.731V164.6H623.231V246H608.431ZM805.281 246V190.9C805.281 184.9 804.715 179.4 803.581 174.4C802.448 169.333 800.615 164.933 798.081 161.2C795.615 157.4 792.381 154.467 788.381 152.4C784.448 150.333 779.648 149.3 773.981 149.3C768.781 149.3 764.181 150.2 760.181 152C756.248 153.8 752.915 156.4 750.181 159.8C747.515 163.133 745.481 167.2 744.081 172C742.681 176.8 741.981 182.267 741.981 188.4L731.581 186.1C731.581 175.033 733.515 165.733 737.381 158.2C741.248 150.667 746.581 144.967 753.381 141.1C760.181 137.233 767.981 135.3 776.781 135.3C783.248 135.3 788.881 136.3 793.681 138.3C798.548 140.3 802.648 143 805.981 146.4C809.381 149.8 812.115 153.7 814.181 158.1C816.248 162.433 817.748 167.067 818.681 172C819.615 176.867 820.081 181.733 820.081 186.6V246H805.281ZM727.181 246V138H740.481V164.6H741.981V246H727.181ZM857.525 294L878.425 237.3L878.725 254.1L831.425 138H847.025L885.825 235.1H879.425L915.225 138H930.225L872.225 294H857.525ZM987.633 246V102H1031.33C1032.87 102 1035.47 102.033 1039.13 102.1C1042.87 102.167 1046.43 102.433 1049.83 102.9C1060.77 104.433 1069.9 108.5 1077.23 115.1C1084.57 121.7 1090.07 130.1 1093.73 140.3C1097.4 150.5 1099.23 161.733 1099.23 174C1099.23 186.267 1097.4 197.5 1093.73 207.7C1090.07 217.9 1084.57 226.3 1077.23 232.9C1069.9 239.5 1060.77 243.567 1049.83 245.1C1046.5 245.5 1042.93 245.767 1039.13 245.9C1035.33 245.967 1032.73 246 1031.33 246H987.633ZM1002.83 231.9H1031.33C1034.07 231.9 1037 231.833 1040.13 231.7C1043.33 231.5 1046.07 231.167 1048.33 230.7C1056.73 229.233 1063.5 225.833 1068.63 220.5C1073.83 215.167 1077.63 208.5 1080.03 200.5C1082.43 192.433 1083.63 183.6 1083.63 174C1083.63 164.333 1082.43 155.467 1080.03 147.4C1077.63 139.333 1073.83 132.667 1068.63 127.4C1063.43 122.133 1056.67 118.767 1048.33 117.3C1046.07 116.833 1043.3 116.533 1040.03 116.4C1036.83 116.2 1033.93 116.1 1031.33 116.1H1002.83V231.9ZM1152.91 249C1144.77 249 1137.94 247.533 1132.41 244.6C1126.94 241.667 1122.84 237.767 1120.11 232.9C1117.37 228.033 1116.01 222.733 1116.01 217C1116.01 211.133 1117.17 206.133 1119.51 202C1121.91 197.8 1125.14 194.367 1129.21 191.7C1133.34 189.033 1138.11 187 1143.51 185.6C1148.97 184.267 1155.01 183.1 1161.61 182.1C1168.27 181.033 1174.77 180.133 1181.11 179.4C1187.51 178.6 1193.11 177.833 1197.91 177.1L1192.71 180.3C1192.91 169.633 1190.84 161.733 1186.51 156.6C1182.17 151.467 1174.64 148.9 1163.91 148.9C1156.51 148.9 1150.24 150.567 1145.11 153.9C1140.04 157.233 1136.47 162.5 1134.41 169.7L1120.11 165.5C1122.57 155.833 1127.54 148.333 1135.01 143C1142.47 137.667 1152.17 135 1164.11 135C1173.97 135 1182.34 136.867 1189.21 140.6C1196.14 144.267 1201.04 149.6 1203.91 156.6C1205.24 159.733 1206.11 163.233 1206.51 167.1C1206.91 170.967 1207.11 174.9 1207.11 178.9V246H1194.01V218.9L1197.81 220.5C1194.14 229.767 1188.44 236.833 1180.71 241.7C1172.97 246.567 1163.71 249 1152.91 249ZM1154.61 236.3C1161.47 236.3 1167.47 235.067 1172.61 232.6C1177.74 230.133 1181.87 226.767 1185.01 222.5C1188.14 218.167 1190.17 213.3 1191.11 207.9C1191.91 204.433 1192.34 200.633 1192.41 196.5C1192.47 192.3 1192.51 189.167 1192.51 187.1L1198.11 190C1193.11 190.667 1187.67 191.333 1181.81 192C1176.01 192.667 1170.27 193.433 1164.61 194.3C1159.01 195.167 1153.94 196.2 1149.41 197.4C1146.34 198.267 1143.37 199.5 1140.51 201.1C1137.64 202.633 1135.27 204.7 1133.41 207.3C1131.61 209.9 1130.71 213.133 1130.71 217C1130.71 220.133 1131.47 223.167 1133.01 226.1C1134.61 229.033 1137.14 231.467 1140.61 233.4C1144.14 235.333 1148.81 236.3 1154.61 236.3ZM1273.44 248.9C1260.77 248.9 1250.34 246.167 1242.14 240.7C1234.01 235.233 1229.01 227.633 1227.14 217.9L1242.14 215.4C1243.74 221.533 1247.37 226.433 1253.04 230.1C1258.77 233.7 1265.84 235.5 1274.24 235.5C1282.44 235.5 1288.91 233.8 1293.64 230.4C1298.37 226.933 1300.74 222.233 1300.74 216.3C1300.74 212.967 1299.97 210.267 1298.44 208.2C1296.97 206.067 1293.94 204.1 1289.34 202.3C1284.74 200.5 1277.87 198.367 1268.74 195.9C1258.94 193.233 1251.27 190.567 1245.74 187.9C1240.21 185.233 1236.27 182.167 1233.94 178.7C1231.61 175.167 1230.44 170.867 1230.44 165.8C1230.44 159.667 1232.17 154.3 1235.64 149.7C1239.11 145.033 1243.91 141.433 1250.04 138.9C1256.17 136.3 1263.31 135 1271.44 135C1279.57 135 1286.84 136.333 1293.24 139C1299.71 141.6 1304.91 145.267 1308.84 150C1312.77 154.733 1315.11 160.233 1315.84 166.5L1300.84 169.2C1299.84 162.867 1296.67 157.867 1291.34 154.2C1286.07 150.467 1279.37 148.533 1271.24 148.4C1263.57 148.2 1257.34 149.667 1252.54 152.8C1247.74 155.867 1245.34 159.967 1245.34 165.1C1245.34 167.967 1246.21 170.433 1247.94 172.5C1249.67 174.5 1252.81 176.4 1257.34 178.2C1261.94 180 1268.47 181.967 1276.94 184.1C1286.87 186.633 1294.67 189.3 1300.34 192.1C1306.01 194.9 1310.04 198.2 1312.44 202C1314.84 205.8 1316.04 210.5 1316.04 216.1C1316.04 226.3 1312.24 234.333 1304.64 240.2C1297.11 246 1286.71 248.9 1273.44 248.9Z" fill="black"/>
<path d="M382.24 346.9C378.9 346.9 375.95 346.21 373.39 344.83C370.83 343.45 368.82 341.52 367.36 339.04C365.92 336.54 365.2 333.61 365.2 330.25V302.83L370.6 302.8V329.8C370.6 331.84 370.94 333.62 371.62 335.14C372.32 336.64 373.24 337.89 374.38 338.89C375.52 339.89 376.77 340.64 378.13 341.14C379.51 341.62 380.88 341.86 382.24 341.86C383.62 341.86 385 341.61 386.38 341.11C387.76 340.61 389.01 339.87 390.13 338.89C391.27 337.89 392.18 336.63 392.86 335.11C393.54 333.59 393.88 331.82 393.88 329.8V302.8H399.28V330.25C399.28 333.59 398.55 336.51 397.09 339.01C395.65 341.51 393.65 343.45 391.09 344.83C388.53 346.21 385.58 346.9 382.24 346.9ZM413.08 346V302.8H418.42V346H413.08ZM443.142 302.8H448.572L437.052 346H431.622L443.142 302.8ZM478.203 346.9C474.863 346.9 471.913 346.21 469.353 344.83C466.793 343.45 464.783 341.52 463.323 339.04C461.883 336.54 461.163 333.61 461.163 330.25V302.83L466.563 302.8V329.8C466.563 331.84 466.903 333.62 467.583 335.14C468.283 336.64 469.203 337.89 470.343 338.89C471.483 339.89 472.733 340.64 474.093 341.14C475.473 341.62 476.843 341.86 478.203 341.86C479.583 341.86 480.963 341.61 482.343 341.11C483.723 340.61 484.973 339.87 486.093 338.89C487.233 337.89 488.143 336.63 488.823 335.11C489.503 333.59 489.843 331.82 489.843 329.8V302.8H495.243V330.25C495.243 333.59 494.513 336.51 493.053 339.01C491.613 341.51 489.613 343.45 487.053 344.83C484.493 346.21 481.543 346.9 478.203 346.9ZM504.843 346L519.693 324.13L505.233 302.8H511.743L522.933 319.63L534.093 302.8H540.633L526.173 324.13L540.993 346H534.483L522.933 328.66L511.383 346H504.843ZM567.379 346V302.8H580.699C581.139 302.8 581.909 302.81 583.009 302.83C584.109 302.85 585.159 302.93 586.159 303.07C589.499 303.51 592.289 304.73 594.529 306.73C596.789 308.71 598.489 311.23 599.629 314.29C600.769 317.35 601.339 320.72 601.339 324.4C601.339 328.08 600.769 331.45 599.629 334.51C598.489 337.57 596.789 340.1 594.529 342.1C592.289 344.08 589.499 345.29 586.159 345.73C585.159 345.85 584.099 345.93 582.979 345.97C581.879 345.99 581.119 346 580.699 346H567.379ZM572.869 340.9H580.699C581.459 340.9 582.309 340.88 583.249 340.84C584.189 340.78 585.009 340.69 585.709 340.57C588.069 340.13 589.979 339.14 591.439 337.6C592.899 336.06 593.969 334.14 594.649 331.84C595.329 329.54 595.669 327.06 595.669 324.4C595.669 321.68 595.319 319.17 594.619 316.87C593.939 314.57 592.869 312.66 591.409 311.14C589.949 309.62 588.049 308.65 585.709 308.23C585.009 308.09 584.179 308 583.219 307.96C582.259 307.92 581.419 307.9 580.699 307.9H572.869V340.9ZM613.019 346V302.8H640.319V307.87H618.359V321.4H636.719V326.47H618.359V340.93H640.319V346H613.019ZM666.43 346.9C663.37 346.9 660.61 346.38 658.15 345.34C655.71 344.3 653.69 342.82 652.09 340.9C650.51 338.96 649.48 336.67 649 334.03L654.52 333.16C655.22 335.88 656.67 338.01 658.87 339.55C661.09 341.07 663.7 341.83 666.7 341.83C668.64 341.83 670.39 341.53 671.95 340.93C673.53 340.31 674.78 339.43 675.7 338.29C676.62 337.15 677.08 335.8 677.08 334.24C677.08 333.28 676.91 332.46 676.57 331.78C676.25 331.08 675.8 330.49 675.22 330.01C674.66 329.51 674.02 329.09 673.3 328.75C672.58 328.41 671.83 328.13 671.05 327.91L660.04 324.64C658.84 324.28 657.68 323.83 656.56 323.29C655.44 322.73 654.44 322.04 653.56 321.22C652.68 320.38 651.98 319.38 651.46 318.22C650.94 317.04 650.68 315.65 650.68 314.05C650.68 311.49 651.34 309.31 652.66 307.51C654 305.69 655.81 304.3 658.09 303.34C660.37 302.38 662.94 301.91 665.8 301.93C668.7 301.95 671.29 302.47 673.57 303.49C675.87 304.49 677.77 305.93 679.27 307.81C680.79 309.69 681.81 311.94 682.33 314.56L676.66 315.55C676.36 313.79 675.69 312.28 674.65 311.02C673.63 309.74 672.35 308.76 670.81 308.08C669.27 307.38 667.58 307.02 665.74 307C663.98 306.98 662.39 307.26 660.97 307.84C659.55 308.42 658.42 309.23 657.58 310.27C656.74 311.29 656.32 312.47 656.32 313.81C656.32 315.13 656.7 316.2 657.46 317.02C658.22 317.82 659.15 318.46 660.25 318.94C661.37 319.4 662.46 319.78 663.52 320.08L671.74 322.45C672.68 322.71 673.76 323.07 674.98 323.53C676.22 323.99 677.42 324.64 678.58 325.48C679.74 326.3 680.7 327.4 681.46 328.78C682.22 330.14 682.6 331.86 682.6 333.94C682.6 336.02 682.18 337.87 681.34 339.49C680.52 341.11 679.37 342.47 677.89 343.57C676.41 344.65 674.69 345.47 672.73 346.03C670.77 346.61 668.67 346.9 666.43 346.9ZM694.293 346V302.8H699.633V346H694.293ZM730.924 346.9C727.964 346.9 725.264 346.38 722.824 345.34C720.384 344.3 718.284 342.81 716.524 340.87C714.764 338.91 713.404 336.55 712.444 333.79C711.504 331.01 711.034 327.88 711.034 324.4C711.034 319.8 711.854 315.82 713.494 312.46C715.134 309.1 717.444 306.51 720.424 304.69C723.404 302.85 726.904 301.93 730.924 301.93C735.764 301.93 739.664 303.06 742.624 305.32C745.584 307.56 747.624 310.63 748.744 314.53L743.344 315.64C742.444 313.02 740.964 310.93 738.904 309.37C736.844 307.81 734.274 307.03 731.194 307.03C727.974 307.01 725.294 307.73 723.154 309.19C721.034 310.63 719.434 312.66 718.354 315.28C717.274 317.9 716.724 320.94 716.704 324.4C716.684 327.84 717.214 330.86 718.294 333.46C719.374 336.06 720.984 338.1 723.124 339.58C725.284 341.04 727.974 341.78 731.194 341.8C733.974 341.82 736.314 341.29 738.214 340.21C740.114 339.13 741.584 337.57 742.624 335.53C743.664 333.49 744.294 331.04 744.514 328.18H735.334V323.77H750.154C750.214 324.17 750.244 324.65 750.244 325.21C750.264 325.75 750.274 326.12 750.274 326.32C750.274 330.26 749.534 333.79 748.054 336.91C746.594 340.01 744.424 342.45 741.544 344.23C738.684 346.01 735.144 346.9 730.924 346.9ZM761.066 346V302.8H766.466L788.996 336.55V302.8H794.396V346H788.996L766.466 312.22V346H761.066ZM807.585 346V302.8H834.885V307.87H812.925V321.4H831.285V326.47H812.925V340.93H834.885V346H807.585ZM846.897 346V302.8H863.967C864.387 302.8 864.887 302.82 865.467 302.86C866.047 302.88 866.607 302.94 867.147 303.04C869.487 303.4 871.447 304.2 873.027 305.44C874.627 306.68 875.827 308.25 876.627 310.15C877.427 312.03 877.827 314.12 877.827 316.42C877.827 319.76 876.957 322.66 875.217 325.12C873.477 327.56 870.927 329.09 867.567 329.71L865.527 330.04H852.237V346H846.897ZM872.607 346L864.087 328.42L869.367 326.8L878.727 346H872.607ZM852.237 324.97H863.787C864.167 324.97 864.597 324.95 865.077 324.91C865.577 324.87 866.047 324.8 866.487 324.7C867.867 324.38 868.987 323.8 869.847 322.96C870.727 322.1 871.367 321.1 871.767 319.96C872.167 318.8 872.367 317.62 872.367 316.42C872.367 315.22 872.167 314.05 871.767 312.91C871.367 311.75 870.727 310.74 869.847 309.88C868.987 309.02 867.867 308.44 866.487 308.14C866.047 308.02 865.577 307.95 865.077 307.93C864.597 307.89 864.167 307.87 863.787 307.87H852.237V324.97Z" fill="black"/>
</svg>
