<svg width="1052" height="1052" viewBox="0 0 1052 1052" fill="none" xmlns="http://www.w3.org/2000/svg">
<g clip-path="url(#clip0_550_14)">
<path d="M525.5 77.5C774.806 77.5 978.5 286.196 978.5 545.629C978.5 731.422 873.849 891.5 722.777 967.158C695.471 932.674 635.271 856.308 579.745 783.543C547.536 741.333 517.127 700.633 495.655 670.104C492.8 666.044 490.131 662.204 487.659 658.599C507.444 654.604 531.339 647.64 554.967 635.48C581.001 622.083 607.484 601.984 627.403 571.968C647.459 541.746 659.695 503.209 659.695 455H629.195C659.449 455 659.692 454.983 659.694 454.966V454.837C659.694 454.772 659.694 454.696 659.693 454.61C659.692 454.438 659.689 454.223 659.685 453.967C659.676 453.456 659.659 452.78 659.629 451.951C659.569 450.294 659.453 448.017 659.234 445.207C658.797 439.597 657.94 431.801 656.257 422.523C652.912 404.089 646.178 379.106 632.455 353.651C604.023 300.914 547.273 249.819 441.308 247.011L440.904 247H440.5C321.37 247 239.663 295.353 188.062 344.073C162.434 368.269 144.298 392.462 132.506 410.716C126.598 419.861 122.245 427.573 119.31 433.133C117.841 435.915 116.724 438.165 115.941 439.792C115.708 440.277 115.504 440.707 115.33 441.08C93.6926 479.473 87.7024 530.154 89.0791 582.056C90.4947 635.425 99.8688 694.495 112.531 751.871C115.101 763.514 117.818 775.128 120.642 786.654C93.0363 714.015 72.5 631.06 72.5 545.629C72.5001 286.196 276.194 77.5 525.5 77.5Z" stroke="black" stroke-width="61" stroke-linecap="round"/>
</g>
<defs>
<clipPath id="clip0_550_14">
<rect width="1052" height="1052" fill="white"/>
</clipPath>
</defs>
</svg>
